# xmcd
#
# Track frame offsets:
#	150
#	49993
#	82814
#	110296
#	163626
#	183926
#	201399
#	223932
#	251720
#	282714
#
# Disc length: 4173 seconds
#
# Revision: 0
# Processed by: cddbd v1.4PL0 Copyright (c) Steve Scherf et al.
# Submitted via: OrangeCD 4.1
#
DISCID=96104b0a
DTITLE=Susan Tedeschi - Sioux City, IA 7/1/00
DYEAR=1900
DGENRE=
TTITLE0=intro/I Fell In Love/Wait For Me
TTITLE1=Little By Little
TTITLE2=Voodoo Woman
TTITLE3=Just Won't Burn/He Treats Your Daughter Mean
TTITLE4=You Need To Be With Me
TTITLE5=In The Garden
TTITLE6=Rock Me Right
TTITLE7=Lookin' For Answers
TTITLE8=It Hurt So Bad
TTITLE9=Angel From Montgomery
EXTD=
EXTT0=
EXTT1=
EXTT2=
EXTT3=
EXTT4=
EXTT5=
EXTT6=
EXTT7=
EXTT8=
EXTT9=
PLAYORDER=
